<?xml version="1.0" encoding="UTF-8"?> <svg xmlns="http://www.w3.org/2000/svg" id="Livello_1" data-name="Livello 1" viewBox="0 0 401.29 243.15"><defs><style>.cls-1{fill:#284979;}.cls-2{fill:#b2c242;}</style></defs><title>tcs_logo</title><path class="cls-1" d="M83.37,195.21a20.34,20.34,0,0,0-5.2-4,34.08,34.08,0,0,0-8.6-3.21,58.41,58.41,0,0,1-5.74-1.71,15.58,15.58,0,0,1-3.41-1.63,4.53,4.53,0,0,1-1.68-1.85,5.49,5.49,0,0,1-.45-2.26,6.5,6.5,0,0,1,2.61-5.29q2.61-2.1,7.28-2.1a11.11,11.11,0,0,1,7.1,2.16,9.56,9.56,0,0,1,3.49,5.51l5.78-1.26a13.32,13.32,0,0,0-1.71-5.12,14.27,14.27,0,0,0-3.52-4,16.92,16.92,0,0,0-5-2.68,18.84,18.84,0,0,0-6.13-1,21.07,21.07,0,0,0-6.76,1,16.17,16.17,0,0,0-5.22,2.86A12.56,12.56,0,0,0,52.86,175a13,13,0,0,0-1.19,5.54,10.5,10.5,0,0,0,1.5,5.85A12.73,12.73,0,0,0,57,190.2a21.28,21.28,0,0,0,5.26,2.4c1.95.6,3.88,1.14,5.78,1.6q12,3,12,9.4a5.83,5.83,0,0,1-.87,3.1,8.88,8.88,0,0,1-2.4,2.55A12.11,12.11,0,0,1,73.16,211a14.76,14.76,0,0,1-4.35.63,13.21,13.21,0,0,1-7.7-2.2A10,10,0,0,1,57,204l-5.79,1.19a11.74,11.74,0,0,0,1.89,5,16,16,0,0,0,3.86,4.07,18,18,0,0,0,5.4,2.72,21.22,21.22,0,0,0,6.48,1,20.49,20.49,0,0,0,6.93-1.16,18.49,18.49,0,0,0,5.64-3.1,14.61,14.61,0,0,0,3.79-4.56,11.73,11.73,0,0,0,1.4-5.61,14,14,0,0,0-.66-4.1A12,12,0,0,0,83.37,195.21Z"></path><path class="cls-1" d="M103.81,202.7a5,5,0,0,1-1.12.24h-.32c-.22,0-.46,0-.7,0a1.77,1.77,0,0,1-.84-.3c-1-.67-1.47-2.48-1.47-5.23V185.2h5.69v-5.84H99.36V166.73H93.52v12.63H90v5.84h3.48v12.18c0,4.88,1.36,8.28,4,10.08a7.06,7.06,0,0,0,2.81,1.17,11.16,11.16,0,0,0,1.92.18q.35,0,.66,0a9.57,9.57,0,0,0,2-.33l1.48-.48-2.11-5.42Z"></path><path class="cls-1" d="M111.12,169.5a3.53,3.53,0,0,0-1.11,2.62,3.77,3.77,0,0,0,3.75,3.75,3.53,3.53,0,0,0,2.62-1.1,3.71,3.71,0,0,0,1.07-2.65,3.57,3.57,0,0,0-1.07-2.61A3.77,3.77,0,0,0,111.12,169.5Z"></path><rect class="cls-1" x="110.75" y="179.36" width="5.96" height="28.43"></rect><path class="cls-1" d="M132.16,173.69a3.57,3.57,0,0,1,1-1.78,1.74,1.74,0,0,1,.84-.3,4.18,4.18,0,0,1,1,0,6.18,6.18,0,0,1,1.15.26l.49.15,2.18-5.41-1.51-.51a8.23,8.23,0,0,0-2-.36,10.11,10.11,0,0,0-2.58.14,7.12,7.12,0,0,0-2.82,1.18c-2.68,1.88-4.05,5.27-4.05,10.07v1.72h-3.47v5.84h3.47v23.1h5.85v-23.1h5.74v-5.84h-5.74v-1.72A11.59,11.59,0,0,1,132.16,173.69Z"></path><path class="cls-1" d="M154.67,202.7a5.11,5.11,0,0,1-1.13.24h-.32c-.22,0-.45,0-.7,0a1.85,1.85,0,0,1-.84-.3c-1-.67-1.46-2.48-1.46-5.23V185.2h5.69v-5.84h-5.69V166.73h-5.85v12.63H140.9v5.84h3.47v12.18c0,4.88,1.37,8.27,4.06,10.08a7,7,0,0,0,2.81,1.17,11.07,11.07,0,0,0,1.92.18c.22,0,.45,0,.66,0a9.58,9.58,0,0,0,2-.33l1.49-.48-2.11-5.42Z"></path><path class="cls-1" d="M181,196.6a13.91,13.91,0,0,1-.33,1.79,5.84,5.84,0,0,1-1,2.13,6.58,6.58,0,0,1-2.31,1.82,9,9,0,0,1-4.12.79,6.1,6.1,0,0,1-3.31-.76,5.42,5.42,0,0,1-1.84-1.85,6.58,6.58,0,0,1-.81-2.31A14.51,14.51,0,0,1,167,196V179.36h-6V197a10.67,10.67,0,0,0,.23,2.09,15.44,15.44,0,0,0,.89,3,10,10,0,0,0,2,3.2,10.75,10.75,0,0,0,3.51,2.46,13,13,0,0,0,5.41,1,11.86,11.86,0,0,0,3.85-.57,15,15,0,0,0,2.72-1.21,9.49,9.49,0,0,0,1.28-.94v1.7h6V179.36h-6Z"></path><path class="cls-1" d="M220.63,188a16.36,16.36,0,0,0-.88-3,10,10,0,0,0-2-3.19,10.7,10.7,0,0,0-3.54-2.47,13.34,13.34,0,0,0-5.43-1,11.86,11.86,0,0,0-3.8.57,14.86,14.86,0,0,0-2.72,1.22,8.62,8.62,0,0,0-1.34.94v-1.7h-6v28.43h6V190.55a12.73,12.73,0,0,1,.32-1.76,6,6,0,0,1,1.07-2.13,6.6,6.6,0,0,1,2.31-1.83,9.17,9.17,0,0,1,4.1-.76,6.31,6.31,0,0,1,3.34.76,5.39,5.39,0,0,1,1.86,1.85,6.58,6.58,0,0,1,.81,2.31,14.34,14.34,0,0,1,.19,2.14v16.66h6V190.1a6.75,6.75,0,0,0-.07-.95C220.77,188.82,220.71,188.44,220.63,188Z"></path><path class="cls-1" d="M249.26,179.36v2.42a14.11,14.11,0,0,0-3.52-2.29,13.7,13.7,0,0,0-11.08,0,14.35,14.35,0,0,0-4.5,3.26,15.53,15.53,0,0,0-3,4.84,16,16,0,0,0,3,16.75,14.21,14.21,0,0,0,4.5,3.25,13.66,13.66,0,0,0,11.08,0,14.26,14.26,0,0,0,3.52-2.28v.43a17.1,17.1,0,0,1-.43,3.83A10.2,10.2,0,0,1,247.4,213a7.55,7.55,0,0,1-2.57,2.35,7.73,7.73,0,0,1-3.88.9,6.75,6.75,0,0,1-3.31-.78,9.73,9.73,0,0,1-2.39-1.83,10,10,0,0,1-1.4-1.85l-.53-1-.24-.49-5.34,2.39.25.53.81,1.5a14.57,14.57,0,0,0,2.33,3.05,16.72,16.72,0,0,0,4,2.94,12,12,0,0,0,5.84,1.36,13.91,13.91,0,0,0,5.81-1.19,13.38,13.38,0,0,0,4.51-3.33,15,15,0,0,0,2.93-5.14,20.41,20.41,0,0,0,1-6.61V179.36Zm-.69,17.87a10,10,0,0,1-1.89,3,8.5,8.5,0,0,1-2.75,2,8.09,8.09,0,0,1-6.64,0,8.61,8.61,0,0,1-2.75-2,9.55,9.55,0,0,1-1.85-3,10.33,10.33,0,0,1,0-7.32,9.5,9.5,0,0,1,1.85-3,8.32,8.32,0,0,1,2.75-2,8,8,0,0,1,6.64,0,8.32,8.32,0,0,1,2.75,2,9.91,9.91,0,0,1,1.89,3,10,10,0,0,1,0,7.31Z"></path><path class="cls-1" d="M182.24,8.71q4.38.49,8.43.88c2.62.25,5.19.37,7.65.37a3.2,3.2,0,0,0,1.39-.31,4.11,4.11,0,0,0,1.24-.9,5.32,5.32,0,0,0,.9-1.32,2.84,2.84,0,0,0,.29-1.23,3.1,3.1,0,0,0-.64-1.91,4,4,0,0,0-2.37-1.17A187.72,187.72,0,0,0,180,.67,240.94,240.94,0,0,0,150.45.28c-3.82.2-7.45.55-10.77,1.06a57.36,57.36,0,0,0-9.11,2.1,25.75,25.75,0,0,0-6.88,3.32,13.87,13.87,0,0,0-4.26,4.66,13,13,0,0,0-1.49,6.38,4.73,4.73,0,0,0,.73,2.29,5.5,5.5,0,0,0,1.84,1.66,7.39,7.39,0,0,0,3.73.75,7.47,7.47,0,0,0,3.71-.73,5.49,5.49,0,0,0,1.81-1.6,3.79,3.79,0,0,0,.62-1.49c.07-.52.1-.84.11-.95a6.92,6.92,0,0,1,1.22-4,9.52,9.52,0,0,1,3-2.77A17.67,17.67,0,0,1,138.9,9.2a41.72,41.72,0,0,1,4.84-1.08c1.71-.29,3.48-.51,5.26-.67s3.52-.31,5.25-.44h.11a1.53,1.53,0,0,1,1.45,2q-3,9.24-5.52,16.78c-1.71,5-4,12.69-5.48,16.85s-2.78,8-4,11.44-4,14.61-4.93,17.7-1.74,6-2.43,8.84-1.23,5.66-1.65,8.54a7.8,7.8,0,0,0-.27,1.83,3.45,3.45,0,0,0,1.17,3,6.16,6.16,0,0,0,3.67,1,2.94,2.94,0,0,0,1.28-.38,6.51,6.51,0,0,0,1.68-1.3,10.18,10.18,0,0,0,1.57-2.1,9.61,9.61,0,0,0,1-2.62c.62-2.44,1.41-5.32,2.37-8.67s2-7,3.09-10.9,4-16,5.16-20.3,3-11.7,4.12-16.05,2.07-8.56,3-12.75,1.65-8.07,2.22-11.62A1.51,1.51,0,0,1,163.47,7c3.31.16,6.58.4,9.7.73S179.3,8.39,182.24,8.71Z"></path><path class="cls-1" d="M190.48,24.86a23.49,23.49,0,0,0-7.82-1.29,21,21,0,0,0-8.72,1.76,19.23,19.23,0,0,0-6.53,4.81,22,22,0,0,0-4.13,7.26,27.84,27.84,0,0,0-1.46,9.11,30.44,30.44,0,0,0,.83,7,19.27,19.27,0,0,0,2.53,6.07,13.46,13.46,0,0,0,4.32,4.24,11.76,11.76,0,0,0,6.26,1.58,13.32,13.32,0,0,0,4.83-.88,16.76,16.76,0,0,0,4.27-2.44,18.58,18.58,0,0,0,3.5-3.68A24.54,24.54,0,0,0,191,53.81a26.48,26.48,0,0,0,1.66-5.13,25,25,0,0,0,.58-5.24A25.39,25.39,0,0,0,192.6,38a24.08,24.08,0,0,0-1.91-5.38,1.44,1.44,0,0,1,.12-1.51l.37-.52a1.47,1.47,0,0,1,2-.35q1.69,1.13,4,2.8c1,.73,2.1,1.55,3.16,2.35l0-.41c0-.36.11-.92.23-1.71.08-.61.22-1.3.38-2a39.17,39.17,0,0,0-3.63-2.85A30.68,30.68,0,0,0,190.48,24.86Zm-4,22.33a29.67,29.67,0,0,1-1.89,5.69,16.65,16.65,0,0,1-2.87,4.45,5.67,5.67,0,0,1-4.15,2.08,7.28,7.28,0,0,1-6.47-3.52,11,11,0,0,1-1.36-3.47,19.48,19.48,0,0,1-.4-4,26.27,26.27,0,0,1,.79-6.27,26.68,26.68,0,0,1,2.17-5.95,16.65,16.65,0,0,1,3.33-4.57,6.69,6.69,0,0,1,4.64-2,5.36,5.36,0,0,1,3.37,1.09,7.42,7.42,0,0,1,2.1,2.67A13.68,13.68,0,0,1,186.86,37a24.87,24.87,0,0,1,.35,4.25A26.79,26.79,0,0,1,186.49,47.19Z"></path><path class="cls-1" d="M251.89,50.32a12.5,12.5,0,0,1-2.47-2.52,14.91,14.91,0,0,1-1.88-3.64,1.42,1.42,0,0,1,.07-1.14c.41-.83.89-1.73,1.43-2.69l3.89-7.2a21.32,21.32,0,0,0,.93-2.07c.32-.81.63-1.7.91-2.65a8.57,8.57,0,0,0,.38-2.38,1.82,1.82,0,0,0-1-1.61,6.24,6.24,0,0,0-3.48-.85,7.83,7.83,0,0,0-3.74.83,4,4,0,0,0-1.78,1.6L234,50.94a1.48,1.48,0,0,1-1.24.86l-.65.05a1.44,1.44,0,0,1-1.18-.47,1.45,1.45,0,0,1-.37-1.21l3.82-25.25a1.11,1.11,0,0,0-.52-.77,3.87,3.87,0,0,0-2.27-.53,8.89,8.89,0,0,0-3.59.65,7.9,7.9,0,0,0-2.66,1.95A17,17,0,0,0,223,29.78c-.77,1.51-1.58,3.31-2.42,5.34s-1.78,4.42-2.79,7-2.21,5.58-3.59,8.76a1.45,1.45,0,0,1-1.23.88l-.6.05a1.47,1.47,0,0,1-1.57-1.65L214.06,25a1.15,1.15,0,0,0-.52-.82,4,4,0,0,0-2.28-.52l-1.24-.1a3.68,3.68,0,0,0-2,.59,7.21,7.21,0,0,0-1.77,1.76,11.09,11.09,0,0,0-1.32,2.51c-.24.67-.41,1.28-.59,1.91-.09.31-.22.64-.29.94s-.1.43-.14.65c-.14.61-.25,1.19-.33,1.7a.36.36,0,0,1,0,.1c-.1.74-.17,1.25-.2,1.55l-.17,2.29-.06.86c0,.33,0,.62-.05.93,0,.51-.07,1-.09,1.5v.34c0,.63,0,1.26,0,1.89v2.63c0,6.82.55,12,1.63,15.43,1.38,4.34,3.32,4.34,3.95,4.34A5.89,5.89,0,0,0,212,64a19.19,19.19,0,0,0,4-4.43,43.1,43.1,0,0,0,3.81-7,65,65,0,0,0,3.12-9.1,1.47,1.47,0,0,1,1.66-1.07l1.36.24a1.45,1.45,0,0,1,1.21,1.44c0,1.67,0,3.38.05,5.15s.08,3.47.16,5.14.18,3.23.32,4.71.31,2.74.52,3.83a9.61,9.61,0,0,0,.69,2.34,1.94,1.94,0,0,0,.1.17,5.29,5.29,0,0,0,2.65-1A16.08,16.08,0,0,0,235,61.22a35.93,35.93,0,0,0,3.41-5.13,71.11,71.11,0,0,0,3.24-6.7,1.48,1.48,0,0,1,1.63-.86,1.45,1.45,0,0,1,1.18,1.41,9.58,9.58,0,0,0,.85,4.07,7.29,7.29,0,0,0,2.14,2.62,9,9,0,0,0,3.23,1.53,16.7,16.7,0,0,0,10-.57,26,26,0,0,0,2.65-1.1c0-1.93.14-4.14.37-6.59,0-.33.07-.67.11-1a32.61,32.61,0,0,1-3.8,1.84C256.58,52.13,253.9,51.91,251.89,50.32Z"></path><path class="cls-1" d="M308,52.65q-1.11,1-2.22,1.86a25.5,25.5,0,0,1-2.27,1.66,18.2,18.2,0,0,1-2.14,1.19,5.35,5.35,0,0,1-2.22.55,3.81,3.81,0,0,1-3.63-2.8,14.6,14.6,0,0,1-.82-5.28c0-1.21.07-2.53.21-3.93s.33-2.81.55-4.23.47-2.81.73-4.17l.73-3.68c.21-1.11.39-2.06.53-2.86a9.88,9.88,0,0,0,.18-1.48,7.93,7.93,0,0,0-1.11-4.57A2.87,2.87,0,0,0,294,23.57a8.16,8.16,0,0,0-3.6.79,7,7,0,0,0-2.79,2.88c-.21.36-.53.93-1,1.7s-.91,1.65-1.43,2.64-1.11,2.09-1.72,3.21-1.16,2.13-1.69,3.12l-2.29,4.31a1.47,1.47,0,0,1-1.29.76h-.93a1.46,1.46,0,0,1-1.47-1.46A12.31,12.31,0,0,1,276,40c.09-.65.21-1.4.35-2.26s.29-1.79.45-2.8l.44-2.92c.13-.94.25-1.8.34-2.58a16.9,16.9,0,0,0,.13-1.71,6.18,6.18,0,0,0-.75-3.32c-.13-.22-.55-.87-2.27-.87a4,4,0,0,0-3,1,5.77,5.77,0,0,0-1.58,2.89c-.43,1.8-.88,4-1.34,6.55s-.88,5.23-1.25,8c-.07.48-.12.95-.18,1.43s-.14,1.12-.2,1.68c-.21,1.7-.39,3.39-.54,5-.23,2.39-.34,4.53-.37,6.4v.58c0,.37,0,.7.06,1.06,0,.81,0,1.62.14,2.38a9,9,0,0,0,.71,2.69,3.88,3.88,0,0,0,1.31,1.61,4.42,4.42,0,0,0,4.19.06,4.63,4.63,0,0,0,1.54-2l12.23-24.28a1.47,1.47,0,0,1,1.31-.8h.75a1.44,1.44,0,0,1,1.44,1.67q-.56,3.72-.92,6.93a49.73,49.73,0,0,0-.37,5.88c0,4.52.54,7.95,1.61,10.22.9,1.9,1.91,2.87,3,2.87a15,15,0,0,0,4.46-.66A24.7,24.7,0,0,0,301.94,63a33.57,33.57,0,0,0,3.95-2.48q2-1.44,3.88-2.88l1.69-1.29L311,49.88C309.94,50.87,308.94,51.8,308,52.65Z"></path><path class="cls-2" d="M63,135.59l-1,.7q-3.61,2.53-7.24,5.06A67.68,67.68,0,0,1,47.08,146a46.28,46.28,0,0,1-8.4,3.35,34.65,34.65,0,0,1-9.63,1.29,21.94,21.94,0,0,1-7.64-1.26,14.92,14.92,0,0,1-5.94-3.92A17.68,17.68,0,0,1,11.78,139a28,28,0,0,1-1.27-8.84,46.15,46.15,0,0,1,.7-7.59,73,73,0,0,1,2-8.41,85,85,0,0,1,3.12-8.66,77.31,77.31,0,0,1,4.11-8.37,66.75,66.75,0,0,1,5-7.56,40.25,40.25,0,0,1,5.79-6.2,28,28,0,0,1,6.48-4.21,17.08,17.08,0,0,1,7.16-1.6,13.7,13.7,0,0,1,5.42,1A10.7,10.7,0,0,1,54,81.16,10.12,10.12,0,0,1,56.12,85a15.54,15.54,0,0,1,.62,4.4A18.15,18.15,0,0,1,55,97.32a21,21,0,0,1-4.31,6.09,19.78,19.78,0,0,1-5.95,4,16.9,16.9,0,0,1-6.62,1.42,10.28,10.28,0,0,1-2.17-.19,11.72,11.72,0,0,1-1.41-.41l-1-.36a1.46,1.46,0,0,0-1,.05,1.35,1.35,0,0,0-.41.62,4.81,4.81,0,0,0-.28,1.29,15,15,0,0,0-.09,1.6c0,.35,0,.68,0,1s0,.69,0,1a2.11,2.11,0,0,0,1.33,2,12.48,12.48,0,0,0,5.65,1,16.81,16.81,0,0,0,5.92-1.12,26.88,26.88,0,0,0,5.88-3.12A31.81,31.81,0,0,0,56,107.39a35.32,35.32,0,0,0,4.32-5.85,30.63,30.63,0,0,0,2.87-6.45,21.85,21.85,0,0,0,1-6.54,19.73,19.73,0,0,0-1.61-8.3,17.75,17.75,0,0,0-4.15-5.78,16.63,16.63,0,0,0-5.71-3.37A19.6,19.6,0,0,0,46.46,70,28.73,28.73,0,0,0,37,71.59a37.62,37.62,0,0,0-8.8,4.47,51.1,51.1,0,0,0-7.94,6.76,67.55,67.55,0,0,0-6.87,8.47,79.57,79.57,0,0,0-5.61,9.57,84.33,84.33,0,0,0-4.19,10,71.16,71.16,0,0,0-2.63,9.83A48.5,48.5,0,0,0,0,129.65,36,36,0,0,0,1.86,141.2a29.92,29.92,0,0,0,5.27,9.57,25.59,25.59,0,0,0,8.18,6.48A23.59,23.59,0,0,0,26,159.64a58,58,0,0,0,10.12-.82,50.35,50.35,0,0,0,8.34-2.19,43.72,43.72,0,0,0,6.88-3.2,61,61,0,0,0,5.81-3.87c1.78-1.36,3.46-2.74,5-4.13.92-.83,1.79-1.58,2.67-2.37a24,24,0,0,1-1.16-3.6A33.65,33.65,0,0,1,63,135.59Z"></path><path class="cls-2" d="M107.86,119.28c-.18-.18-.34-.37-.51-.55a40.36,40.36,0,0,0-6.08-5.11,30.68,30.68,0,0,0-6.92-3.52,23.44,23.44,0,0,0-7.81-1.29,21,21,0,0,0-8.73,1.76,19.23,19.23,0,0,0-6.53,4.81,22,22,0,0,0-4.12,7.26,27.16,27.16,0,0,0-1.41,7.61c0,.5,0,1,0,1.5,0,.11,0,.21,0,.32,0,.54.06,1.08.09,1.62a30.39,30.39,0,0,0,.71,5.1,21.16,21.16,0,0,0,.7,2.17c.18.5.34,1,.55,1.45s.46.9.7,1.34.36.77.59,1.12a13.53,13.53,0,0,0,4.32,4.23,11.72,11.72,0,0,0,6.25,1.58,13.16,13.16,0,0,0,4.84-.88,16.7,16.7,0,0,0,4.26-2.44,18.63,18.63,0,0,0,3.51-3.68,25.43,25.43,0,0,0,2.64-4.63,27,27,0,0,0,1.66-5.13,23.93,23.93,0,0,0-.07-10.69,23.26,23.26,0,0,0-1.91-5.38,1.45,1.45,0,0,1,.13-1.51l.37-.52a1.47,1.47,0,0,1,2-.36c1.13.76,2.48,1.69,4,2.81s3.17,2.3,4.79,3.56c.46.35.89.72,1.34,1.08.17-1,.35-2,.54-3.12C107.79,119.65,107.83,119.46,107.86,119.28ZM90.37,132.43a30.14,30.14,0,0,1-1.89,5.69,16.67,16.67,0,0,1-2.88,4.45,5.63,5.63,0,0,1-4.15,2.08A7.28,7.28,0,0,1,75,141.13a10.07,10.07,0,0,1-.86-1.81,14.71,14.71,0,0,1-.44-1.46c0-.07,0-.13-.05-.2-.1-.44-.15-.9-.21-1.36a18.69,18.69,0,0,1-.2-2.63,25.74,25.74,0,0,1,.47-4.54c.1-.58.18-1.15.32-1.73h0c.15-.64.36-1.22.55-1.83a26.56,26.56,0,0,1,1.62-4.12,17,17,0,0,1,3.33-4.57,6.69,6.69,0,0,1,4.65-2,5.35,5.35,0,0,1,3.36,1.09,7.42,7.42,0,0,1,2.11,2.67,14.07,14.07,0,0,1,1.1,3.58,24.87,24.87,0,0,1,.35,4.25A27.35,27.35,0,0,1,90.37,132.43Z"></path><path class="cls-2" d="M151.48,138.93l-.28.19c-1.19.76-2.36,1.44-3.49,2a24.91,24.91,0,0,1-3.33,1.46c-2.46.86-4.25.79-5.38-.23a4,4,0,0,1-1.14-1.94,9.42,9.42,0,0,1-.34-2.26c0-.74-.05-1.57-.05-2.46a20.49,20.49,0,0,1,.3-2.72c.19-1.21.43-2.62.73-4.22l1-5.13q.51-2.75.95-5.33c.29-1.7.53-3.27.71-4.7a26.53,26.53,0,0,0,.27-3.24c0-.14,0-.47-.69-.89a6,6,0,0,0-3-.63,7.38,7.38,0,0,0-3.13.63c-.73.34-1,.67-1.08.86L128.85,134a15.06,15.06,0,0,1-1.25,3.72,12.1,12.1,0,0,1-1.95,2.82,8.86,8.86,0,0,1-2.44,1.84,4.69,4.69,0,0,1-4.83,0,4.22,4.22,0,0,1-1.26-1.48,6.54,6.54,0,0,1-.64-1.76,9.24,9.24,0,0,1-.19-1.91s.06-.6.22-1.67.34-2.17.59-3.7l.84-5.2q.47-2.92,1-6c.34-2,.68-4.08,1-6.1s.59-3.61.86-5.17l-.23-.12a7.63,7.63,0,0,0-3-.48,3.64,3.64,0,0,0-1.84.57,6.11,6.11,0,0,0-1.69,1.56,11.34,11.34,0,0,0-1.37,2.33,22.63,22.63,0,0,0-1,2.68,24.61,24.61,0,0,0-.64,2.38.19.19,0,0,0,0,.08c-.16.71-.26,1.27-.32,1.7a.17.17,0,0,0,0,.07c-.11.61-.21,1.18-.31,1.77-.19,1.07-.37,2.11-.54,3.11-.09.57-.19,1.15-.29,1.69s-.19,1.18-.29,1.76c-.25,1.54-.49,3-.7,4.4a60.94,60.94,0,0,0-.85,8.92,15.74,15.74,0,0,0,.54,4.49A7.51,7.51,0,0,0,109.6,149a4.45,4.45,0,0,0,1.81,1.32,7.94,7.94,0,0,0,5.7-.26,17.15,17.15,0,0,0,3.6-1.95,27.8,27.8,0,0,0,3.62-3,37.66,37.66,0,0,0,3.41-3.89,1.46,1.46,0,0,1,2.59.58,29.65,29.65,0,0,0,1,3.71,10.6,10.6,0,0,0,1.35,2.65,5.14,5.14,0,0,0,1.69,1.54c1.32.73,3.47.62,5.81.06a29.46,29.46,0,0,0,4-1.24,42.6,42.6,0,0,0,4-1.83c1.15-.6,2.25-1.23,3.29-1.86-.06-.81-.14-1.61-.14-2.44C151.38,141.33,151.41,140.17,151.48,138.93Z"></path><path class="cls-2" d="M196,137.89q-1.11,1-2.22,1.86a26.52,26.52,0,0,1-2.28,1.66,18.79,18.79,0,0,1-2.13,1.19,5.36,5.36,0,0,1-2.23.55,3.81,3.81,0,0,1-3.63-2.8,14.56,14.56,0,0,1-.82-5.28c0-1.21.08-2.53.22-3.93s.32-2.81.55-4.23.46-2.81.73-4.17l.72-3.68c.21-1.11.39-2.06.53-2.86a10.28,10.28,0,0,0,.19-1.48,7.93,7.93,0,0,0-1.11-4.57,2.87,2.87,0,0,0-2.51-1.34,8.21,8.21,0,0,0-3.61.79,7.17,7.17,0,0,0-2.79,2.88c-.2.36-.53.93-1,1.7s-.91,1.65-1.43,2.64-1.11,2.09-1.72,3.2-1.17,2.14-1.69,3.13l-2.29,4.31a1.47,1.47,0,0,1-1.29.76h-.94a1.46,1.46,0,0,1-1.46-1.46,13.92,13.92,0,0,1,.15-1.49c.1-.65.22-1.4.36-2.26s.28-1.79.44-2.8l.44-2.92c.14-.94.26-1.79.35-2.57s.13-1.3.13-1.72a6.28,6.28,0,0,0-.75-3.32c-.14-.22-.55-.87-2.27-.87a4,4,0,0,0-3,1,5.83,5.83,0,0,0-1.59,2.89c-.43,1.8-.88,4-1.33,6.55s-.89,5.24-1.25,8c-.25,1.8-.45,3.6-.64,5.37-.08.71-.15,1.41-.22,2.11,0,.22-.05.45-.07.67,0,.47-.08.91-.11,1.36-.17,2.08-.26,4-.26,5.62,0,.19,0,.37,0,.56,0,.59.06,1.16.1,1.73,0,.38,0,.78.07,1.16,0,.17.07.32.09.49a9,9,0,0,0,.63,2.2,3.89,3.89,0,0,0,1.3,1.6,4.44,4.44,0,0,0,4.2.06,4.63,4.63,0,0,0,1.54-2l12.23-24.28a1.46,1.46,0,0,1,1.3-.8h.75a1.45,1.45,0,0,1,1.45,1.67q-.56,3.72-.93,6.93a51.7,51.7,0,0,0-.36,5.88c0,4.52.54,8,1.61,10.22.9,1.9,1.9,2.87,3,2.87a14.85,14.85,0,0,0,4.46-.66,24.05,24.05,0,0,0,4.23-1.76,32.89,32.89,0,0,0,4-2.48q2-1.44,3.88-2.88L199,142a41.53,41.53,0,0,1-1.47-5.49C197,137,196.5,137.48,196,137.89Z"></path><path class="cls-2" d="M231.08,104.85l-2.57-.1-2.95-.11-2.76-.12-2.24-.07a14.64,14.64,0,0,1-1.53-.08,1.46,1.46,0,0,1-1.08-2.23c1.11-1.76,2.17-3.55,3.16-5.3a55.54,55.54,0,0,0,2.57-5.2,36.56,36.56,0,0,0,1.7-5A18.34,18.34,0,0,0,226,82.2a19.74,19.74,0,0,0-.59-4.84,13.86,13.86,0,0,0-1.62-4,8.25,8.25,0,0,0-2.4-2.54c-2.27-1.55-5.17-1.08-7.79,1.48a27.74,27.74,0,0,0-5,7,66.92,66.92,0,0,0-4.24,10.27,103.55,103.55,0,0,0-3.16,12,1.43,1.43,0,0,1-1.14,1.14,8.42,8.42,0,0,1-1.52.11h-.5c-.83,0-1.77,0-2.82-.07-.69,0-1.4,0-2.14,0H192a18.31,18.31,0,0,0-2.91.24,5.85,5.85,0,0,0-1.87.56,2,2,0,0,0-.1,1,1.39,1.39,0,0,0,.16.56,1.11,1.11,0,0,0,.39.39,2.78,2.78,0,0,0,1.11.31c1.68.19,3,.34,3.87.47s1.67.25,2.26.36l1.66.33c.5.11,1.18.22,2.06.33a1.43,1.43,0,0,1,1,.56,1.47,1.47,0,0,1,.29,1.09c-.27,2-.49,4.14-.64,6.21s-.23,4-.23,5.87a87.78,87.78,0,0,0,.48,9.52c.06.58.14,1.14.22,1.7s.12,1,.19,1.47c.21,1.28.46,2.47.73,3.61a32,32,0,0,0,1.72,5.37c.06.14.11.29.17.42a14.81,14.81,0,0,0,4.1,5.64c2.32,1.84,4.9,2.43,8.76,1.24a34.12,34.12,0,0,0,4.66-1.88c1.77-.85,3.84-1.93,6.14-3.22,1.74-1,3.7-2.1,5.8-3.31,0-1.27.09-2.65.22-4.2.1-1.12.22-2.3.36-3.51q-1.72,1.47-3.59,2.78c-1.28.91-2.6,1.76-3.93,2.52s-2.61,1.44-3.8,2a28.74,28.74,0,0,1-3.4,1.35,9.62,9.62,0,0,1-2.89.53,9.46,9.46,0,0,1-3.39-.58,6.62,6.62,0,0,1-2.79-2,9.29,9.29,0,0,1-1.63-3.37,18.2,18.2,0,0,1-.51-4.62c0-.67,0-1.39,0-2.18s0-1.6.07-2.45l.19-5q.13-2.84.33-5.73a1.5,1.5,0,0,1,.32-.83q1.16-1.42,2.52-3.21t2.71-3.63a1.45,1.45,0,0,1,1.18-.61h17.92a1.28,1.28,0,0,0,1-.54,2.4,2.4,0,0,0,.55-1.68,3.75,3.75,0,0,0-.28-1.61A12.75,12.75,0,0,0,231.08,104.85Zm-18.28-2a1.47,1.47,0,0,1-1.26.72h-.19l-1.4-.16c-.49-.05-1-.1-1.45-.17a1.44,1.44,0,0,1-1-.61,1.51,1.51,0,0,1-.23-1.15q.84-3.81,1.85-7.83c.68-2.7,1.41-5.21,2.19-7.47a33.58,33.58,0,0,1,2.49-5.74c.41-.71,1.66-2.88,3.72-2.88A3.5,3.5,0,0,1,221,79.73a5.55,5.55,0,0,1,.41,1.59,12.71,12.71,0,0,1,.08,1.3,13.93,13.93,0,0,1-.87,4.3c-.55,1.6-1.24,3.33-2.06,5.15s-1.76,3.69-2.78,5.55S213.74,101.22,212.8,102.82Z"></path><path class="cls-2" d="M269.39,136.61c.06-1.83.16-3.6.35-5.21.08-.7.19-1.38.3-2.07a11.66,11.66,0,0,1-2.88.39,5.19,5.19,0,0,1-2-.39,4.56,4.56,0,0,1-1.8-1.41,6.62,6.62,0,0,1-1.12-2.29,11.48,11.48,0,0,1-.38-3.21,17.4,17.4,0,0,1,.25-2.68c.15-1,.33-2,.52-3s.35-2,.51-3a13.47,13.47,0,0,0,.21-2,3,3,0,0,0-.24-1.24,2.7,2.7,0,0,0-.65-.89,2.94,2.94,0,0,0-1-.58,3.71,3.71,0,0,0-1.23-.22,6.23,6.23,0,0,0-3.68,1.11,14.7,14.7,0,0,0-3.18,3.08,25.92,25.92,0,0,0-2.56,4.08q-1.17,2.31-2.1,4.18a1.47,1.47,0,0,1-1.31.81h-.51a1.46,1.46,0,0,1-1.46-1.41c-.07-1.6-.1-3.23-.1-4.89V111.6c0-.91,0-1.64-.06-2.16a1.46,1.46,0,0,0-.12-.55c-.33,0-.81-.08-1.71-.08a9.84,9.84,0,0,0-1.57.1,1.56,1.56,0,0,0-.59.21,1.69,1.69,0,0,0-.47.54,7.45,7.45,0,0,0-.62,1.36A35,35,0,0,0,239,114.8c-.4,1.57-.8,3.3-1.2,5.17s-.78,3.86-1.13,5.94c-.19,1.09-.33,2.14-.49,3.22s-.31,2-.44,2.91q-.39,3-.62,5.69c-.15,1.75-.23,3.32-.23,4.66,0,.33,0,.63.06,1,0,.84,0,1.69.14,2.5a9,9,0,0,0,.72,2.69,3.46,3.46,0,0,0,3.55,2.15,2.37,2.37,0,0,0,.95-.18,2.21,2.21,0,0,0,.76-.63,9.13,9.13,0,0,0,1-1.66,30.47,30.47,0,0,0,1.17-2.86l8.35-23.28a1.47,1.47,0,0,1,1.38-1h.74a1.48,1.48,0,0,1,1.46,1.28c.24,1.91.56,3.83,1,5.69a17.23,17.23,0,0,0,1.72,4.78,8.87,8.87,0,0,0,2.93,3.21,8.59,8.59,0,0,0,4.83,1.18,11.35,11.35,0,0,0,3.42-.52Z"></path><path class="cls-2" d="M303.91,136.86c.21-1.39.43-2.78.67-4.18q.46-2.94,1-5.91t1-5.64c.33-1.78.63-3.38.91-4.78s.52-2.54.71-3.36a2.48,2.48,0,0,0,.1-.65c0-.55-.19-.67-.3-.74a4.76,4.76,0,0,0-3.77,0,8.24,8.24,0,0,0-4.06,2.83,5.59,5.59,0,0,0-1.06,2.27l-3.27,13.72a28.41,28.41,0,0,1-.83,3.79,27.34,27.34,0,0,1-1.75,4.58,15.94,15.94,0,0,1-2.68,3.95,5.61,5.61,0,0,1-4.19,2,4.23,4.23,0,0,1-2.66-.84,5.33,5.33,0,0,1-1.55-1.92,7.83,7.83,0,0,1-.71-2.39,16.6,16.6,0,0,1-.18-2.47,44.25,44.25,0,0,1,.38-5.37c.25-2,.6-4,1-6.1s.92-4.1,1.47-6.08,1.13-3.72,1.71-5.2a5.85,5.85,0,0,0,.32-1,4.3,4.3,0,0,0,.09-.84,1.46,1.46,0,0,0-.54-1.35c-1.22-.84-3.21-.71-5.18.37a5.84,5.84,0,0,0-2.48,2.58c-.93,1.88-1.77,3.8-2.51,5.68a44.71,44.71,0,0,0-1.52,4.76c-.09.33-.2.66-.28,1s-.13.64-.2,1c-.13.59-.26,1.17-.37,1.78-.22,1.17-.4,2.36-.54,3.58s-.23,2.41-.3,3.7c0,.52,0,1.08,0,1.62s0,1.07,0,1.62c0,.12,0,.24,0,.36a13.42,13.42,0,0,0,.87,5,11.37,11.37,0,0,0,2.31,3.68,10,10,0,0,0,3.28,2.28,9.5,9.5,0,0,0,8.42-.43,23.09,23.09,0,0,0,4.94-3.4,1.45,1.45,0,0,1,1.75-.14,1.47,1.47,0,0,1,.63,1.64L293.19,152a1.43,1.43,0,0,1-.47.73c-2.21,1.81-4.43,3.74-6.58,5.73s-4.27,4.05-6.24,6.09-3.83,4.14-5.5,6.19a65.65,65.65,0,0,0-4.33,5.93,33.33,33.33,0,0,0-2.82,5.31,11.44,11.44,0,0,0-1,4.19,8.55,8.55,0,0,0,.83,4.13,6.2,6.2,0,0,0,2.1,2.28,8.07,8.07,0,0,0,2.88,1.11,18.75,18.75,0,0,0,3.18.3,17.77,17.77,0,0,0,6.76-1.26,18.77,18.77,0,0,0,5.56-3.58,26.4,26.4,0,0,0,4.56-5.61,49.49,49.49,0,0,0,3.66-7.36,70.26,70.26,0,0,0,2.81-8.69C301.24,157.28,302.33,147.16,303.91,136.86Zm-12.27,27.52c-.26,1.28-.61,2.74-1.05,4.34s-1,3.31-1.63,5a46.78,46.78,0,0,1-2.21,5,27.32,27.32,0,0,1-2.83,4.49,15.51,15.51,0,0,1-3.58,3.33,8.18,8.18,0,0,1-4.51,1.38,3,3,0,0,1-3.33-3.19,8.48,8.48,0,0,1,.82-3.28,26.07,26.07,0,0,1,2-3.74c.84-1.31,1.81-2.67,2.9-4.06s2.28-2.77,3.49-4.08,2.48-2.55,3.78-3.71a35.35,35.35,0,0,1,3.88-3,1.45,1.45,0,0,1,1.62,0A1.47,1.47,0,0,1,291.64,164.38Z"></path><path class="cls-2" d="M395.58,162.92c-25.6-1.34-45.44-19.41-58.08-40.38-.8-1.31-2.89-3.14-4.47-1.85-14.88,12.15-29.41,24.83-44.86,36.25-2.52,1.86,1.75,7.09,4.31,5.2,14.69-10.86,28.55-22.86,42.68-34.45,14.35,22.09,37.84,43.58,64.84,45C403.72,172.88,398.49,163.07,395.58,162.92Z"></path><path class="cls-1" d="M314.84,97.58a21.53,21.53,0,0,0,7,3.33,35.87,35.87,0,0,0,9.93,1.24,29.71,29.71,0,0,0,7.69-.91,38.65,38.65,0,0,0,5.88-2,67.26,67.26,0,0,0,8.24-4.39l1.72,1.87c10.51,11.39,20.6,23.88,24.06,39.33a54.31,54.31,0,0,1,.8,20.42,21.71,21.71,0,0,0,8.64,1.66,56.36,56.36,0,0,0-4.61-34.64c-5.6-11.74-15.7-22.29-24.79-33.11.16-.15.33-.29.49-.45,3.1-3.08,5.28-6.75,5.28-11a10.79,10.79,0,0,0-.77-4,17.52,17.52,0,0,0-2-3.76A19.78,19.78,0,0,0,359.51,68c-.49-.44-5.88-5-5.16-1.36.12.61,1.32,1.68,1.68,2.25,3.16,5,2.15,9.65-.57,14.46-2.93,5.16-9.12,8.35-14.49,10.33a26.08,26.08,0,0,1-8.84,1.78,19.47,19.47,0,0,1-5.71-.75,12.37,12.37,0,0,1-4.17-2.1,8.8,8.8,0,0,1-2.59-3.29,9.77,9.77,0,0,1-.83-4,14.23,14.23,0,0,1,.73-4.36,20.21,20.21,0,0,1,2.06-4.36,26.64,26.64,0,0,1,3.27-4.22,43.68,43.68,0,0,1,6.69-5.65c-.66.47,8.14,12.17,8.94,13.18,1.46,1.83,4.3,6,6.36,7.12,2.09.17,5.64-4.25,5.49-4.42-4.89-5.3-10.87-12.12-15-19.69a75.73,75.73,0,0,0,11-7.92,35.22,35.22,0,0,0,5.13-5.85,21.45,21.45,0,0,0,2.8-5.64,18,18,0,0,0,.85-5.22,12.11,12.11,0,0,0-1.05-5.07,12.4,12.4,0,0,0-2.94-4.05,14,14,0,0,0-4.6-2.72,18.65,18.65,0,0,0-13.27.51A20.52,20.52,0,0,0,329.12,31a20.18,20.18,0,0,0-4.22,5.89,15.9,15.9,0,0,0-1.54,6.84,20.62,20.62,0,0,0,.52,4.47,46.87,46.87,0,0,0,1.35,4.89c.55,1.62,1.15,3.19,1.79,4.66s1.27,2.77,1.85,3.84a1.52,1.52,0,0,1-.61,2.06,51,51,0,0,0-8.35,5.53,37,37,0,0,0-5.89,6,24.71,24.71,0,0,0-3.49,6.09A16.16,16.16,0,0,0,309.4,87a12.83,12.83,0,0,0,1.36,5.81A13.58,13.58,0,0,0,314.84,97.58ZM333.66,38c2.71-5.58,11.37-10,15.58-2.14,4.85,9.09-7.42,19.25-13.64,23.34C335.47,59,329.09,47.86,333.66,38Z"></path><path class="cls-2" d="M379,161.67c-2.63,10.23-8.26,20.21-16.32,31-23.49,31.36-68.29,56.13-87,41.24-7-5.56-4.05-14.69,1.06-22.51,1.65-2.54-5-6.26-6.58-3.61-3.37,5.66-5.86,13.91-3.76,20.45,1.89,5.92,4.95,10,10.44,12.27,16.76,7,39.8-.92,54.27-9.49,11.92-7.06,24.4-18.54,33.52-28.87,8.19-9.28,15.43-19.59,20.23-31a64.12,64.12,0,0,0,2.75-8C384.57,163.07,381.59,162.93,379,161.67Z"></path><path class="cls-2" d="M315.92,189.82a10.23,10.23,0,0,1-3.63-.59,7.54,7.54,0,0,1-2.57-1.57,6.25,6.25,0,0,1-1.53-2.27,7.1,7.1,0,0,1-.51-2.65,8.35,8.35,0,0,1,.29-2.14,8.74,8.74,0,0,1,.86-2,9.44,9.44,0,0,1,1.41-1.85,8.79,8.79,0,0,1,1.95-1.48,10.36,10.36,0,0,1,2.48-1,11.88,11.88,0,0,1,3-.36,9.68,9.68,0,0,1,2.32.26,7.37,7.37,0,0,1,1.85.74,5.8,5.8,0,0,1,1.38,1.11,5.92,5.92,0,0,1,.94,1.4,6.88,6.88,0,0,1,.55,1.6,8.85,8.85,0,0,1,.17,1.71,9.53,9.53,0,0,1-.26,2.17,8.92,8.92,0,0,1-.8,2.1,9.71,9.71,0,0,1-1.29,1.91,8.39,8.39,0,0,1-1.76,1.54,8.79,8.79,0,0,1-2.21,1A9,9,0,0,1,315.92,189.82Z"></path><path class="cls-2" d="M343.75,190.29a10.57,10.57,0,0,1-3.91-.66,8,8,0,0,1-2.77-1.77,7.1,7.1,0,0,1-1.65-2.53,8,8,0,0,1-.55-3,8.78,8.78,0,0,1,.3-2.26,9,9,0,0,1,2.37-4.08,9.06,9.06,0,0,1,2-1.55,10.84,10.84,0,0,1,2.63-1,12.74,12.74,0,0,1,3.19-.38,10,10,0,0,1,2.48.28,7.35,7.35,0,0,1,2,.77,6.68,6.68,0,0,1,1.48,1.18,6.16,6.16,0,0,1,1,1.48,6.65,6.65,0,0,1,.59,1.69,8.43,8.43,0,0,1,.19,1.81,10.33,10.33,0,0,1-.28,2.39A11.17,11.17,0,0,1,352,185a10.29,10.29,0,0,1-1.35,2.08,9.2,9.2,0,0,1-1.84,1.68,9.09,9.09,0,0,1-2.32,1.13A9,9,0,0,1,343.75,190.29Z"></path></svg> 